<?xml version="1.0" encoding="UTF-8" standalone="no"?>
<!-- Created with Inkscape (http://www.inkscape.org/) -->

<svg
   width="328.51361mm"
   height="155.69159mm"
   viewBox="0 0 328.5136 155.69159"
   version="1.1"
   id="svg5"
   inkscape:version="1.1 (c68e22c387, 2021-05-23)"
   sodipodi:docname="application_overview.svg"
   xmlns:inkscape="http://www.inkscape.org/namespaces/inkscape"
   xmlns:sodipodi="http://sodipodi.sourceforge.net/DTD/sodipodi-0.dtd"
   xmlns="http://www.w3.org/2000/svg"
   xmlns:svg="http://www.w3.org/2000/svg">
  <sodipodi:namedview
     id="namedview7"
     pagecolor="#ffffff"
     bordercolor="#666666"
     borderopacity="1.0"
     inkscape:pageshadow="2"
     inkscape:pageopacity="0.0"
     inkscape:pagecheckerboard="0"
     inkscape:document-units="mm"
     showgrid="false"
     fit-margin-top="0"
     fit-margin-left="0"
     fit-margin-right="0"
     fit-margin-bottom="0"
     inkscape:zoom="0.47433592"
     inkscape:cx="861.20402"
     inkscape:cy="557.6217"
     inkscape:window-width="1920"
     inkscape:window-height="1001"
     inkscape:window-x="-9"
     inkscape:window-y="-9"
     inkscape:window-maximized="1"
     inkscape:current-layer="layer1" />
  <defs
     id="defs2">
    <clipPath
       id="clip0">
      <rect
         x="112"
         y="74"
         width="1397"
         height="787"
         id="rect9" />
    </clipPath>
  </defs>
  <g
     inkscape:label="Layer 1"
     inkscape:groupmode="layer"
     id="layer1"
     transform="translate(-3.5485022,-89.768678)">
    <g
       clip-path="url(#clip0)"
       transform="matrix(0.19876943,0,0,0.21460661,-18.713674,61.578168)"
       id="g86">
      <path
         d="m 155.5,315.3 c 0,-6.517 5.283,-11.8 11.8,-11.8 h 211.4 c 6.517,0 11.8,5.283 11.8,11.8 v 94.4 c 0,6.517 -5.283,11.8 -11.8,11.8 H 167.3 c -6.517,0 -11.8,-5.283 -11.8,-11.8 z"
         stroke="#000000"
         stroke-width="2.5"
         stroke-miterlimit="8"
         fill="#ffffff"
         fill-rule="evenodd"
         id="path14" />
      <text
         font-family="Calibri, Calibri_MSFontService, sans-serif"
         font-weight="400"
         font-size="40px"
         id="text16"
         x="212.37601"
         y="373">Camera</text>
      <path
         d="m 540.5,247.3 c 0,-6.517 5.283,-11.8 11.8,-11.8 h 211.4 c 6.517,0 11.8,5.283 11.8,11.8 v 94.4 c 0,6.517 -5.283,11.8 -11.8,11.8 H 552.3 c -6.517,0 -11.8,-5.283 -11.8,-11.8 z"
         stroke="#000000"
         stroke-width="2.5"
         stroke-miterlimit="8"
         fill="#ffffff"
         fill-rule="evenodd"
         id="path20" />
      <text
         font-family="Calibri, Calibri_MSFontService, sans-serif"
         font-weight="400"
         font-size="40px"
         transform="translate(567.033,305)"
         id="text22">2D Convert</text>
      <path
         d="m 775.5,293.666 h 85.71 v 2.5 H 775.5 Z m 84.044,-3.75 10,5 -10,5 z"
         id="path24" />
      <path
         d="m 869.5,247.3 c 0,-6.517 5.283,-11.8 11.8,-11.8 h 212.4 c 6.52,0 11.8,5.283 11.8,11.8 v 94.4 c 0,6.517 -5.28,11.8 -11.8,11.8 H 881.3 c -6.517,0 -11.8,-5.283 -11.8,-11.8 z"
         stroke="#000000"
         stroke-width="2.5"
         stroke-miterlimit="8"
         fill="#ffffff"
         fill-rule="evenodd"
         id="path26" />
      <text
         font-family="Calibri, Calibri_MSFontService, sans-serif"
         font-weight="400"
         font-size="40px"
         transform="translate(923.494,283)"
         id="text30">Labeled <tspan
   font-size="40px"
   x="-15.9166"
   y="44"
   id="tspan28">Rectangle</tspan></text>
      <path
         d="m 1105.5,293.666 h 85.71 v 2.5 h -85.71 z m 84.04,-3.75 10,5 -10,5 z"
         id="path32" />
      <path
         d="m 1199.5,247.3 c 0,-6.517 5.28,-11.8 11.8,-11.8 h 211.4 c 6.52,0 11.8,5.283 11.8,11.8 v 94.4 c 0,6.517 -5.28,11.8 -11.8,11.8 h -211.4 c -6.52,0 -11.8,-5.283 -11.8,-11.8 z"
         stroke="#000000"
         stroke-width="2.5"
         stroke-miterlimit="8"
         fill="#ffffff"
         fill-rule="evenodd"
         id="path34" />
      <path
         d="m 540.5,383.2 c 0,-6.462 5.238,-11.7 11.7,-11.7 h 211.6 c 6.462,0 11.7,5.238 11.7,11.7 v 93.6 c 0,6.462 -5.238,11.7 -11.7,11.7 H 552.2 c -6.462,0 -11.7,-5.238 -11.7,-11.7 z"
         stroke="#000000"
         stroke-width="2.5"
         stroke-miterlimit="8"
         fill="#ffffff"
         fill-rule="evenodd"
         id="path40" />
      <text
         font-family="Calibri, Calibri_MSFontService, sans-serif"
         font-weight="400"
         font-size="40px"
         transform="translate(567.033,440)"
         id="text42">2D Convert</text>
      <path
         d="m 775.5,428.666 h 85.71 v 2.5 H 775.5 Z m 84.044,-3.75 10,5 -10,5 z"
         id="path44" />
      <path
         d="m 869.5,383.2 c 0,-6.462 5.238,-11.7 11.7,-11.7 h 212.6 c 6.46,0 11.7,5.238 11.7,11.7 v 93.6 c 0,6.462 -5.24,11.7 -11.7,11.7 H 881.2 c -6.462,0 -11.7,-5.238 -11.7,-11.7 z"
         stroke="#000000"
         stroke-width="2.5"
         stroke-miterlimit="8"
         fill="#ffffff"
         fill-rule="evenodd"
         id="path46" />
      <text
         font-family="Calibri, Calibri_MSFontService, sans-serif"
         font-weight="400"
         font-size="40px"
         transform="translate(880.403,440)"
         id="text48">ML Inference</text>
      <path
         d="m 1105.5,428.666 h 85.71 v 2.5 h -85.71 z m 84.04,-3.75 10,5 -10,5 z"
         id="path50" />
      <path
         d="m 1199.5,383.2 c 0,-6.462 5.24,-11.7 11.7,-11.7 h 211.6 c 6.46,0 11.7,5.238 11.7,11.7 v 93.6 c 0,6.462 -5.24,11.7 -11.7,11.7 h -211.6 c -6.46,0 -11.7,-5.238 -11.7,-11.7 z"
         stroke="#000000"
         stroke-width="2.5"
         stroke-miterlimit="8"
         fill="#ffffff"
         fill-rule="evenodd"
         id="path52" />
      <text
         font-family="Calibri, Calibri_MSFontService, sans-serif"
         font-weight="400"
         font-size="40px"
         transform="translate(1245.64,440)"
         id="text54">NULL Sink</text>
      <rect
         x="120"
         y="608"
         width="348"
         height="99"
         stroke="#000000"
         stroke-width="1.66667"
         stroke-miterlimit="8"
         fill="#ffffff"
         id="rect56" />
      <text
         font-family="Calibri, Calibri_MSFontService, sans-serif"
         font-weight="400"
         font-size="40px"
         transform="translate(155.578,669)"
         id="text58">Main Application</text>
      <rect
         x="120"
         y="707"
         width="348"
         height="149"
         stroke="#000000"
         stroke-width="1.66667"
         stroke-miterlimit="8"
         stroke-opacity="0.901961"
         fill="#ffffff"
         fill-opacity="0.901961"
         id="rect60" />
      <text
         font-family="Calibri, Calibri_MSFontService, sans-serif"
         font-weight="400"
         font-size="40px"
         transform="translate(136.57,756)"
         id="text76">•<tspan
   font-size="40px"
   x="30"
   y="0"
   id="tspan62">ML Output</tspan><tspan
   font-size="40px"
   x="0"
   y="51"
   id="tspan64">•</tspan><tspan
   font-size="40px"
   x="30"
   y="51"
   id="tspan66">Post Processing</tspan><tspan
   font-weight="700"
   font-size="40px"
   x="86.4646"
   y="-523"
   id="tspan68">Pipeline 0</tspan><tspan
   font-weight="700"
   font-size="40px"
   x="86.4646"
   y="-246"
   id="tspan70">Pipeline 1</tspan><tspan
   font-weight="700"
   font-size="40px"
   x="523.01599"
   y="58"
   id="tspan72">Labeled Rectangle Update</tspan><tspan
   font-weight="700"
   font-size="40px"
   x="492.79901"
   y="4"
   id="tspan74">ML Inference Output Callback</tspan></text>
      <path
         d="m 1108.9,801.044 h 398.28 l -1.25,1.25 V 132.609 l 1.25,1.25 H 989.5 l 1.25,-1.25 v 80.558 h -2.5 v -81.808 h 520.18 V 803.544 H 1108.9 Z M 994.5,211.5 l -5,10 -5,-10 z"
         id="path78" />
      <path
         d="M 428.5,801.5 H 617.593"
         stroke="#000000"
         stroke-width="2.5"
         stroke-miterlimit="8"
         fill="none"
         fill-rule="evenodd"
         id="path80" />
      <path
         d="M 989.5,497.5 V 717.07"
         stroke="#000000"
         stroke-width="2.5"
         stroke-miterlimit="8"
         fill="none"
         fill-rule="evenodd"
         id="path82" />
      <path
         d="M 617.865,748.75 H 382.833 v -2.5 h 235.032 z m -233.365,3.75 -10,-5 10,-5 z"
         id="path84" />
      <path
         style="fill:none;fill-rule:evenodd;stroke:#000000;stroke-width:1px;stroke-linecap:butt;stroke-linejoin:miter;stroke-opacity:1"
         d="m -150.65548,644.17012 1.49073,-132.67497"
         id="path1235"
         inkscape:connector-type="polyline"
         inkscape:connector-curvature="0" />
    </g>
    <text
       xml:space="preserve"
       style="font-weight:bold;font-size:4.4061px;line-height:1.25;font-family:arial;-inkscape-font-specification:'arial Bold';text-decoration-color:#000000;word-spacing:0px;fill:#f50000;stroke-width:0.206536;-inkscape-stroke:none;stop-color:#000000"
       x="242.47725"
       y="128.91997"
       id="text5394-1"
       transform="scale(0.96239477,1.0390746)"><tspan
         sodipodi:role="line"
         id="tspan5392-0"
         style="font-size:4.4061px;fill:#040000;fill-opacity:1;stroke-width:0.206536"
         x="242.47725"
         y="128.91997">(Rotation)</tspan></text>
    <path
       d="m 69.704369,124.37175 h 17.036529 v 0.53652 H 69.704369 Z m 16.705377,-0.80477 1.987699,1.07303 -1.987699,1.07304 z"
       id="path24-3"
       style="stroke-width:0.206536" />
    <path
       d="m 69.704369,153.1646 h 17.036529 v 0.53651 H 69.704369 Z m 16.705377,-0.80478 1.987699,1.07303 -1.987699,1.07304 z"
       id="path24-2"
       style="stroke-width:0.206536" />
    <path
       d="M 69.704369,124.37175 V 153.1646"
       stroke="#000000"
       stroke-width="0.403618"
       stroke-miterlimit="8"
       fill="none"
       fill-rule="evenodd"
       id="path82-8" />
    <path
       d="M 59.513427,139.98907 H 70.280273"
       stroke="#000000"
       stroke-width="0.276356"
       stroke-miterlimit="8"
       fill="none"
       fill-rule="evenodd"
       id="path80-0" />
    <path
       d="m 266.4088,124.6862 h 17.03652 v 0.53651 H 266.4088 Z m 16.70459,-0.80477 1.98769,1.07303 -1.98769,1.07303 z"
       id="path32-6"
       style="stroke-width:0.206536" />
    <path
       d="m 285.09313,114.73576 c 0,-1.3986 1.0495,-2.53236 2.34547,-2.53236 h 42.01986 c 1.29597,0 2.34548,1.13376 2.34548,2.53236 v 20.25885 c 0,1.39859 -1.04951,2.53235 -2.34548,2.53235 H 287.4386 c -1.29597,0 -2.34547,-1.13376 -2.34547,-2.53235 z"
       stroke="#000000"
       stroke-width="0.516341"
       stroke-miterlimit="8"
       fill="#ffffff"
       fill-rule="evenodd"
       id="path34-6" />
    <text
       font-family="Calibri, Calibri_MSFontService, sans-serif"
       font-weight="400"
       font-size="8.26143px"
       id="text36-0"
       x="308.32782"
       y="122.33823"
       style="stroke-width:0.206536"
       transform="scale(0.96239477,1.0390746)">Display</text>
    <text
       font-family="Calibri, Calibri_MSFontService, sans-serif"
       font-weight="400"
       font-size="8.26143px"
       id="text22-3"
       x="233.09966"
       y="122.7509"
       style="stroke-width:0.206536"
       transform="scale(0.96239477,1.0390746)">2D Convert</text>
    <text
       xml:space="preserve"
       style="font-weight:bold;font-size:4.4061px;line-height:1.25;font-family:arial;-inkscape-font-specification:'arial Bold';text-decoration-color:#000000;word-spacing:0px;fill:#f50000;stroke-width:0.206536;-inkscape-stroke:none;stop-color:#000000"
       x="103.53307"
       y="129.09068"
       id="text5394"
       transform="scale(0.96239477,1.0390746)"><tspan
         sodipodi:role="line"
         id="tspan5392"
         style="font-size:4.4061px;fill:#040000;fill-opacity:1;stroke-width:0.206536"
         x="103.53307"
         y="129.09068">(Color + Flip)</tspan></text>
  </g>
</svg>
